<svg xmlns="http://www.w3.org/2000/svg" width="25" height="25" viewBox="0 0 25 25"><defs><style>.a{fill:#fff;}</style></defs><path class="a" d="M349.026,423.549a.946.946,0,0,0-1.852.386.988.988,0,0,1-.2.828.961.961,0,0,1-.757.36h-4.271a.946.946,0,1,0,0,1.892h4.271a2.873,2.873,0,0,0,2.809-3.465Z" transform="translate(-324.087 -402.014)"/><path class="a" d="M13.524,13.319a10.773,10.773,0,0,1,7.964,4.726.978.978,0,0,0,1.626-1.088,12.729,12.729,0,0,0-6.6-5,6.657,6.657,0,1,0-7.967,0A12.714,12.714,0,0,0,.064,21.422,2.969,2.969,0,0,0,2.971,25H7.244a.977.977,0,1,0,0-1.953H2.971a1,1,0,0,1-.783-.371,1.018,1.018,0,0,1-.207-.855,10.809,10.809,0,0,1,9.456-8.49L9.567,21.811a.975.975,0,0,0,.264.9l1.958,1.953a.981.981,0,0,0,1.385,0l1.958-1.953a.975.975,0,0,0,.264-.9ZM7.832,6.641a4.7,4.7,0,1,1,4.932,4.682l-.233,0-.229,0A4.7,4.7,0,0,1,7.832,6.641Zm4.65,15.953-.887-.885.887-4.025.887,4.025Z" transform="translate(0 0)"/></svg>