<svg xmlns="http://www.w3.org/2000/svg" width="20" height="20" viewBox="0 0 20 20"><defs><style>.a{fill:#3f3430;}</style></defs><path class="a" d="M17.857,32H2.143A2.143,2.143,0,0,0,0,34.143V49.857A2.143,2.143,0,0,0,2.143,52H17.857A2.143,2.143,0,0,0,20,49.857V34.143A2.143,2.143,0,0,0,17.857,32Zm0,17.857H2.143V34.143H17.857Zm-1.6-10.791-7.7,7.643a.536.536,0,0,1-.758,0L3.741,42.62a.536.536,0,0,1,0-.758l1.014-1.006a.536.536,0,0,1,.758,0l2.669,2.691,6.31-6.26a.536.536,0,0,1,.758,0l1.006,1.014A.536.536,0,0,1,16.256,39.066Z" transform="translate(0 -32)"/></svg>