<svg xmlns="http://www.w3.org/2000/svg" width="17" height="15.111" viewBox="0 0 17 15.111"><defs><style>.a{fill:red;}</style></defs><path class="a" d="M16.808,12.986a1.417,1.417,0,0,1-1.227,2.125H1.418A1.417,1.417,0,0,1,.191,12.986L7.273.708a1.418,1.418,0,0,1,2.454,0ZM8.5,10.448a1.358,1.358,0,1,0,1.358,1.358A1.358,1.358,0,0,0,8.5,10.448ZM7.211,5.568,7.43,9.582a.354.354,0,0,0,.354.335H9.216a.354.354,0,0,0,.354-.335l.219-4.014a.354.354,0,0,0-.354-.373H7.564a.354.354,0,0,0-.354.373Z" transform="translate(0)"/></svg>