<svg xmlns="http://www.w3.org/2000/svg" width="32.812" height="21.875" viewBox="0 0 32.812 21.875"><defs><style>.a{fill:#fff;}</style></defs><g transform="translate(-0.001 -4)"><path class="a" d="M28.865,25.875A3.928,3.928,0,0,1,25.2,23.366l-1.693-3.819a.393.393,0,0,0-.361-.28H9.666a.37.37,0,0,0-.343.242L7.6,23.406a3.928,3.928,0,0,1-6.7,1.009,3.993,3.993,0,0,1-.805-3.356L2.813,8.171A5.258,5.258,0,0,1,7.917,4H24.9A5.26,5.26,0,0,1,30,8.171l2.725,12.887a3.993,3.993,0,0,1-.805,3.356,3.919,3.919,0,0,1-3.054,1.46Zm-19.2-8.658h13.48A2.412,2.412,0,0,1,25.4,18.756l1.693,3.819a1.908,1.908,0,0,0,1.775,1.251,1.873,1.873,0,0,0,1.46-.7,1.956,1.956,0,0,0,.392-1.641L27.993,8.6a3.2,3.2,0,0,0-3.1-2.546H7.917A3.2,3.2,0,0,0,4.82,8.6L2.1,21.482a1.951,1.951,0,0,0,.392,1.641,1.87,1.87,0,0,0,1.459.7,1.89,1.89,0,0,0,1.758-1.211l1.725-3.9a2.393,2.393,0,0,1,2.235-1.5Z"/><path class="a" d="M7.775,13.836A1.026,1.026,0,0,1,6.75,12.81V8.025a1.025,1.025,0,1,1,2.051,0V12.81A1.026,1.026,0,0,1,7.775,13.836Z" transform="translate(2.478 1.102)"/><path class="a" d="M10.81,10.8H6.025a1.025,1.025,0,1,1,0-2.051H10.81a1.025,1.025,0,0,1,0,2.051Z" transform="translate(1.836 1.744)"/><path class="a" d="M17.418,13.836a3.418,3.418,0,1,1,3.418-3.418A3.423,3.423,0,0,1,17.418,13.836Zm0-4.785a1.367,1.367,0,1,0,1.367,1.367A1.369,1.369,0,0,0,17.418,9.051Z" transform="translate(5.14 1.102)"/></g></svg>