<svg xmlns="http://www.w3.org/2000/svg" width="25.614" height="25.614" viewBox="0 0 25.614 25.614"><defs><style>.a{fill:#fff;}</style></defs><path class="a" d="M23.923,11.308a15.577,15.577,0,0,0-3.591-3.774,23.6,23.6,0,0,0-4.27-2.592l1.346-3.484a1,1,0,0,0,.067-.36V1A1,1,0,0,0,16.124.064a9.068,9.068,0,0,1-6.683,0A1,1,0,0,0,8.089,1v.1a1,1,0,0,0,.067.36L9.5,4.943A23.461,23.461,0,0,0,5.255,7.535,15.546,15.546,0,0,0,1.682,11.31,9.939,9.939,0,0,0,0,16.776a9.057,9.057,0,0,0,2.287,6.4A8.174,8.174,0,0,0,8.171,25.61H8.2l9.005,0h.022a8.262,8.262,0,0,0,6.815-3.372A1,1,0,0,0,22.4,21.092a6.314,6.314,0,0,1-5.214,2.524l-8.982,0C4.377,23.514,2,20.895,2,16.776c0-2.769,1.5-5.337,4.444-7.632A21.463,21.463,0,0,1,10.933,6.49h3.214l.046.04c3.536,3.076,5.329,6.2,5.329,9.3a1,1,0,0,0,2,0,11.724,11.724,0,0,0-2.094-6.464c2.153,1.735,4.191,4.22,4.191,7.412a1,1,0,0,0,2,0A9.907,9.907,0,0,0,23.923,11.308ZM14.094,4.493H11.47l-.773-2a10.887,10.887,0,0,0,4.171,0Z" transform="translate(0 0.001)"/><path class="a" d="M190.987,194.578a1,1,0,0,0,1-1V193a2.742,2.742,0,0,0,2.4-2.73v-.245a2.756,2.756,0,0,0-.832-1.985,2.815,2.815,0,0,0-1.983-.8h-.915a.842.842,0,0,1-.812-.849v-.364a.781.781,0,0,1,.812-.784h.865a.486.486,0,0,1,.517.455,1,1,0,0,0,2,0,2.473,2.473,0,0,0-2.048-2.409v-.642a1,1,0,0,0-2,0v.676a2.789,2.789,0,0,0-1.314.722,2.75,2.75,0,0,0-.829,1.982v.364a2.831,2.831,0,0,0,2.809,2.846h.915a.8.8,0,0,1,.817.791v.245a.773.773,0,0,1-.817.761h-1.487a.459.459,0,0,1-.494-.449,1,1,0,0,0-2,0,2.439,2.439,0,0,0,2.4,2.444v.551A1,1,0,0,0,190.987,194.578Z" transform="translate(-178.206 -172.559)"/></svg>