<svg xmlns="http://www.w3.org/2000/svg" width="27.344" height="26.81" viewBox="0 0 27.344 26.81"><defs><style>.a{fill:#fff;}</style></defs><g transform="translate(-0.001 -5)"><path class="a" d="M128.211,124.942a.8.8,0,0,0,.2.814l2.68,2.639-.616,3.71a.8.8,0,0,0,1.153.838l3.338-1.733,3.338,1.733a.8.8,0,0,0,1.154-.838l-.616-3.71,2.68-2.639a.8.8,0,0,0-.441-1.356l-3.719-.56-1.682-3.364a.8.8,0,0,0-1.426,0l-1.682,3.364-3.719.56A.8.8,0,0,0,128.211,124.942Zm5,.413a.8.8,0,0,0,.594-.432l1.154-2.309,1.154,2.309a.8.8,0,0,0,.594.432l2.552.384-1.839,1.811a.8.8,0,0,0-.227.7l.423,2.546-2.29-1.189a.8.8,0,0,0-.735,0l-2.29,1.189.423-2.546a.8.8,0,0,0-.227-.7l-1.839-1.811Z" transform="translate(-121.291 -108.921)"/><path class="a" d="M26.748,20.428a7.094,7.094,0,0,0-2.858-.088,10.323,10.323,0,0,0,.209-1.845,5.679,5.679,0,0,0,2.823-2.439,5.785,5.785,0,0,0,0-4.236.8.8,0,0,0-.98-.465A6.709,6.709,0,0,0,22.88,13.43a10.575,10.575,0,0,0-1.106-1.657,5.373,5.373,0,0,0,.367-3.636,5.785,5.785,0,0,0-2.923-3.065.8.8,0,0,0-1.02.321,5.785,5.785,0,0,0-.642,4.187,5.68,5.68,0,0,0,2.811,3.011,8.811,8.811,0,1,1-13.343-.054A5.617,5.617,0,0,0,9.767,9.587,5.785,5.785,0,0,0,9.151,5.4.8.8,0,0,0,8.133,5.07,5.785,5.785,0,0,0,5.191,8.117,5.4,5.4,0,0,0,5.553,11.8a10.666,10.666,0,0,0-1.091,1.634,6.327,6.327,0,0,0-3.085-1.993.8.8,0,0,0-.951.473,5.785,5.785,0,0,0,0,4.236,5.361,5.361,0,0,0,2.82,2.371,10.4,10.4,0,0,0,.213,1.838A7.1,7.1,0,0,0,.6,20.427a.8.8,0,0,0-.584.945A6.151,6.151,0,0,0,2.379,25a4.675,4.675,0,0,0,2.418.607,6.937,6.937,0,0,0,1.3-.127A10.251,10.251,0,0,0,7.28,26.56a4.06,4.06,0,0,0-1.1.521,5.785,5.785,0,0,0-2.09,3.684.8.8,0,0,0,.6.883,6.555,6.555,0,0,0,1.451.156,4.876,4.876,0,0,0,2.743-.751,5.153,5.153,0,0,0,1.863-2.728,10.692,10.692,0,0,0,5.81.011,5.184,5.184,0,0,0,1.911,2.755,4.832,4.832,0,0,0,2.673.719,6.6,6.6,0,0,0,1.528-.173.8.8,0,0,0,.591-.89,5.785,5.785,0,0,0-2.133-3.66,4.055,4.055,0,0,0-1.1-.5,10.243,10.243,0,0,0,1.229-1.125,6.751,6.751,0,0,0,1.3.131,4.646,4.646,0,0,0,2.382-.6,6.144,6.144,0,0,0,2.38-3.614A.8.8,0,0,0,26.748,20.428Zm-18.764,9.3a3.487,3.487,0,0,1-2.108.467,3.5,3.5,0,0,1,1.206-1.792,3.488,3.488,0,0,1,2.108-.467A3.5,3.5,0,0,1,7.984,29.729ZM6.717,8.607A3.489,3.489,0,0,1,8.093,6.942,3.488,3.488,0,0,1,8.242,9.1a3.487,3.487,0,0,1-1.376,1.664A3.5,3.5,0,0,1,6.717,8.607ZM1.86,15.44A3.5,3.5,0,0,1,1.7,13.271a3.53,3.53,0,0,1,1.694,1.464,2.523,2.523,0,0,1,.225.766,9.983,9.983,0,0,0-.276,1.3A3.377,3.377,0,0,1,1.86,15.44Zm1.345,8.187a3.7,3.7,0,0,1-1.348-1.771,3.82,3.82,0,0,1,2.175.4l.006,0c.038.093.078.186.119.278A10.86,10.86,0,0,0,4.95,24a3.2,3.2,0,0,1-1.744-.376ZM21.47,30.2a3.5,3.5,0,0,1-2.114-.441,3.488,3.488,0,0,1-1.228-1.776,3.5,3.5,0,0,1,2.114.441A3.487,3.487,0,0,1,21.47,30.2Zm2.482-15.465a3.779,3.779,0,0,1,1.7-1.523,3.485,3.485,0,0,1-.167,2.139,3.628,3.628,0,0,1-1.494,1.412,10.144,10.144,0,0,0-.267-1.244A2.532,2.532,0,0,1,23.952,14.733ZM19.085,9.1a3.489,3.489,0,0,1,.162-2.154,3.489,3.489,0,0,1,1.366,1.674,3.488,3.488,0,0,1-.162,2.154A3.488,3.488,0,0,1,19.085,9.1Zm5.043,14.514a3.174,3.174,0,0,1-1.722.368,10.856,10.856,0,0,0,.775-1.438q.068-.154.132-.309a3.808,3.808,0,0,1,2.173-.386A3.711,3.711,0,0,1,24.127,23.613Z"/></g></svg>