<svg xmlns="http://www.w3.org/2000/svg" width="25" height="25" viewBox="0 0 25 25"><defs><style>.a{fill:#fff;}</style></defs><path class="a" d="M19.775,12.549a2.93,2.93,0,0,0,0,5.859h4.15l.049,0,.049,0A.977.977,0,0,0,25,17.432V9.766A3.9,3.9,0,0,0,23.381,6.6l-3.322-5.45A.977.977,0,0,0,18.71.831L16.26,2.35,15.155.48A.977.977,0,0,0,13.807.142L4.4,5.86H2.93a.978.978,0,0,1-.976-.952.978.978,0,0,1,.976-.952H4.736A.977.977,0,0,0,4.736,2H2.93A2.935,2.935,0,0,0,.08,4.253.972.972,0,0,0,0,4.639V21.094A3.911,3.911,0,0,0,3.906,25H21.094A3.9,3.9,0,0,0,24.8,22.331a.977.977,0,0,0-1.853-.618,1.951,1.951,0,0,1-1.853,1.334H3.906a1.955,1.955,0,0,1-1.953-1.953V7.645a2.916,2.916,0,0,0,.977.168H21.094a1.955,1.955,0,0,1,1.953,1.953v2.783Zm3.271,3.906H19.775a.977.977,0,0,1,0-1.953h3.271ZM8.161,5.86l5.816-3.535,1.04,1.76a.979.979,0,0,0,.071.141.99.99,0,0,0,.069.1l.908,1.537Zm10.174,0-1.08-1.828L18.9,3.009,20.641,5.86Z" transform="translate(0 0)"/></svg>