<svg xmlns="http://www.w3.org/2000/svg" width="30" height="22" viewBox="0 0 30 22"><defs><style>.a{fill:#873c28;}.b{fill:#fff;font-size:11px;font-family:SegoeUI, Segoe UI;}</style></defs><path class="a" d="M5.251,22a.72.72,0,0,1-.75-.687V19.938a.721.721,0,0,1,.75-.688h19.5a.721.721,0,0,1,.75.688v1.374a.72.72,0,0,1-.75.687ZM6,17.877,2.612,9.6a2.582,2.582,0,0,1-.361.035,2.437,2.437,0,0,1-.929-.184A2,2,0,0,1,.2,6.718,2.337,2.337,0,0,1,3.179,5.691,2,2,0,0,1,4.3,8.42l3.388,1.863.025.014a1.576,1.576,0,0,0,2.047-.511L13.58,3.661a2.161,2.161,0,0,1-.325-.3,1.946,1.946,0,0,1,.325-2.9,2.392,2.392,0,0,1,3.165.3,1.946,1.946,0,0,1-.325,2.9L20.24,9.785l.016.023a1.578,1.578,0,0,0,2.057.474l3.394-1.864a1.886,1.886,0,0,1-.206-.85,2.259,2.259,0,0,1,4.5,0,2.162,2.162,0,0,1-2.25,2.062,2.582,2.582,0,0,1-.361-.035L24,17.877Z" transform="translate(0 0)"/><text class="b" transform="translate(15 15.5)"><tspan x="-2.965" y="0">3</tspan></text></svg>