<svg xmlns="http://www.w3.org/2000/svg" width="8.615" height="10.338" viewBox="0 0 8.615 10.338"><defs><style>.a{fill:#fff;}</style></defs><g transform="translate(-16)"><g transform="translate(16)"><path class="a" d="M22.892,7.753V.861A.861.861,0,0,0,22.03,0H16.861A.861.861,0,0,0,16,.861V7.753a.861.861,0,0,0,.861.861H22.03A.861.861,0,0,0,22.892,7.753ZM20.954,5.575a1.47,1.47,0,0,1-.778.21,1.847,1.847,0,0,1-.3-.025l.431,1.132H18.584l.431-1.132a1.553,1.553,0,0,1-1.078-.185,1.42,1.42,0,0,1-.645-1.268A2.134,2.134,0,0,1,18.3,2.769a2.943,2.943,0,0,0,.759-.808.431.431,0,0,1,.77,0,2.952,2.952,0,0,0,.759.808A2.134,2.134,0,0,1,21.6,4.307,1.42,1.42,0,0,1,20.954,5.575Z" transform="translate(-16)"/><path class="a" d="M54.03,32H53.6v6.03a1.292,1.292,0,0,1-1.292,1.292H48v.431a.861.861,0,0,0,.861.861H54.03a.861.861,0,0,0,.861-.861V32.861A.861.861,0,0,0,54.03,32Z" transform="translate(-46.277 -30.277)"/></g></g></svg>