<svg xmlns="http://www.w3.org/2000/svg" width="13.533" height="13.533" viewBox="0 0 13.533 13.533"><defs><style>.a{fill:#826728;}</style></defs><path class="a" d="M21.533,14.754A6.767,6.767,0,0,1,10.52,20.035a.654.654,0,0,1-.05-.972l.307-.307a.656.656,0,0,1,.87-.054,5.021,5.021,0,1,0-.32-7.593l1.385,1.385a.437.437,0,0,1-.309.745H8.437A.437.437,0,0,1,8,12.8V8.836a.437.437,0,0,1,.745-.309l1.347,1.347a6.767,6.767,0,0,1,11.441,4.88ZM16.6,16.9l.268-.345a.655.655,0,0,0-.115-.919l-1.111-.864V11.929a.655.655,0,0,0-.655-.655h-.437a.655.655,0,0,0-.655.655v3.7l1.785,1.388A.655.655,0,0,0,16.6,16.9Z" transform="translate(-8 -8)"/></svg>