<svg xmlns="http://www.w3.org/2000/svg" xmlns:xlink="http://www.w3.org/1999/xlink" width="39.531" height="39.531" viewBox="0 0 39.531 39.531"><defs><style>.a{fill:#a00;}.b{mix-blend-mode:multiply;isolation:isolate;fill:url(#a);}.c{fill:#fff;}</style><linearGradient id="a" x1="0.234" y1="0.025" x2="0.877" y2="0.76" gradientUnits="objectBoundingBox"><stop offset="0" stop-color="#a6a7a7"/><stop offset="1" stop-color="#fff"/></linearGradient></defs><circle class="a" cx="15.108" cy="15.108" r="15.108" transform="translate(0 11.652) rotate(-22.682)"/><path class="b" d="M194.56,323.364q0-.6-.046-1.183c-.012-.014-.024-.028-.037-.041-.03-.03-.063-.057-.094-.085s-.055-.064-.085-.094-.063-.057-.094-.085-.055-.064-.085-.094-.063-.057-.094-.085-.055-.064-.085-.095-.062-.057-.094-.084-.055-.065-.086-.1-.063-.057-.094-.085-.055-.064-.085-.094-.062-.057-.094-.085-.055-.064-.086-.095-.063-.057-.094-.085-.055-.064-.085-.095-.063-.057-.095-.085-.055-.064-.085-.094-.062-.057-.094-.085-.055-.064-.086-.095-.063-.057-.094-.085-.055-.064-.085-.095-.063-.057-.094-.085-.055-.064-.085-.094-.062-.057-.094-.085-.055-.064-.086-.095-.063-.057-.094-.085-.055-.064-.085-.094-.063-.057-.094-.085-.055-.064-.085-.094-.063-.057-.094-.085-.055-.064-.085-.094-.062-.057-.094-.085-.055-.064-.085-.094-.063-.057-.094-.085-.055-.064-.085-.094-.063-.057-.094-.085-.055-.064-.085-.094-.063-.057-.094-.085-.055-.064-.085-.095-.062-.057-.094-.085-.055-.064-.085-.094-.063-.057-.094-.085-.055-.064-.085-.095-.062-.057-.094-.084-.055-.064-.086-.1-.063-.057-.094-.085-.055-.064-.085-.094-.063-.057-.095-.085-.055-.064-.085-.094-.062-.057-.094-.085-.055-.064-.086-.095-.063-.057-.094-.085-.055-.064-.085-.094-.063-.057-.095-.086-.055-.064-.085-.094-.062-.057-.094-.085-.055-.064-.086-.095-.063-.057-.094-.085-.055-.064-.085-.095-.062-.057-.094-.085-.055-.064-.085-.095-.063-.057-.094-.085-.055-.064-.085-.094a2.16,2.16,0,0,0-3.054,0l-9,9-1.974-1.974-1.663-1.663h0l-.179-.179a2.159,2.159,0,0,0-3.053,3.053l.359.359h0l.718.718.179.179.358.358h0l1.077,1.077h0l.718.718h0l.179.179h0l.718.718h0l.179.179h0l2.333,2.333h0l.358.358h0l.9.9h0l.718.718h0l.179.18h0l.9.9h0l2.513,2.513h0l.811.811A15.114,15.114,0,0,0,194.56,323.364Z" transform="translate(-159.686 -303.598)"/><g transform="translate(9.673 12.344)"><path class="c" d="M176.861,330.785a2.156,2.156,0,0,1-1.527-.633l-5.343-5.343a2.159,2.159,0,0,1,3.053-3.053l3.817,3.816,9-9a2.159,2.159,0,1,1,3.054,3.053l-10.524,10.524A2.154,2.154,0,0,1,176.861,330.785Z" transform="translate(-169.359 -315.943)"/></g></svg>